<svg width="155" height="155" viewBox="0 0 155 155" fill="none" xmlns="http://www.w3.org/2000/svg">
<g clip-path="url(#clip0_1_36)">
<path d="M46.3577 154.526C20.7546 154.526 0 133.772 0 108.168V46.3577C0 20.7546 20.7546 0 46.3577 0H108.168C133.772 0 154.526 20.7546 154.526 46.3577V108.168C154.526 133.772 133.772 154.526 108.168 154.526H46.3577Z" fill="#A62A6C"/>
<path d="M111.586 30.9053H42.9404C36.305 30.9053 30.9053 36.305 30.9053 42.9404V111.586C30.9053 118.223 36.305 123.621 42.9404 123.621H47.5097H48.847H66.8996H68.2369H111.586C118.221 123.621 123.621 118.223 123.621 111.586V42.9404C123.621 36.305 118.221 30.9053 111.586 30.9053ZM90.9699 86.3016V33.5797H99.242V86.3002H105.679V120.947H87.6268V86.3016H90.9699ZM42.9404 120.947C37.78 120.947 33.5797 116.746 33.5797 111.586V42.9404C33.5797 37.7787 37.78 33.5797 42.9404 33.5797V86.3002H47.5097V120.947H42.9404ZM48.847 120.947V86.3002H54.1277V33.5797H66.8996V120.947H48.847ZM68.2369 33.5797H79.7839V86.3016H86.2895V120.947H68.2369V33.5797ZM120.947 111.586C120.947 116.746 116.748 120.947 111.586 120.947H107.017V86.3002H110.428V33.5797H111.586C116.748 33.5797 120.947 37.7787 120.947 42.9404V111.586Z" fill="white"/>
</g>
<defs>
<clipPath id="clip0_1_36">
<rect width="154.526" height="154.526" fill="white"/>
</clipPath>
</defs>
</svg>
